<?xml version="1.0" encoding="UTF-8"?>
<svg version="1.1" viewBox="0 0 1600 1600" width="1280" height="1280" xmlns="http://www.w3.org/2000/svg" enable-background="new 0 0 496 496" >
<path transform="translate(654,1198)" d="m0 0c3.59 0.783 7.17 1.58 10.8 2.38 1.02 0.222 2.03 0.443 3.08 0.672 1.47 0.329 1.47 0.329 2.97 0.664 0.901 0.199 1.8 0.398 2.73 0.603 2.37 0.657 4.3 1.56 6.47 2.69 0.0231 10.4 0.0409 20.8 0.0518 31.1 0.00522 4.82 0.0123 9.64 0.0236 14.5 0.0108 4.65 0.0168 9.3 0.0194 13.9 0.00185 1.78 0.00546 3.55 0.0109 5.33 0.00724 2.48 0.00826 4.97 0.0078 7.45 0.0036 0.737 0.00719 1.47 0.0109 2.23-0.00628 3.1-0.137 5.49-1.12 8.45 2.87-1.44 3.21-3.3 4.5-6.22 0.489-1.09 0.978-2.18 1.48-3.3 0.52-1.17 1.04-2.34 1.58-3.54 3.78-8.35 7.66-16.5 12.3-24.4 2.6-4.46 4.95-8.99 7.22-13.6 2.63-5.33 5.32-10.6 8.19-15.8 0.624-1.14 1.25-2.29 1.89-3.46 1.86-2.6 1.86-2.6 3.68-3.32 2.55-0.328 4.34 0.0152 6.84 0.646 0.876 0.22 1.75 0.44 2.65 0.666 1.36 0.357 1.36 0.357 2.75 0.721 0.911 0.226 1.82 0.452 2.76 0.686 3.9 0.998 6.79 1.74 10.2 4 0.385 1.96 0.385 1.96 0.399 4.42 0.0125 0.928 0.0251 1.86 0.038 2.81-0.00144 1.02-0.00287 2.04-0.00435 3.1 0.0153 1.61 0.0153 1.61 0.0309 3.25 0.0303 3.56 0.0394 7.12 0.0485 10.7 0.0168 2.46 0.035 4.93 0.0544 7.39 0.0476 6.49 0.0774 13 0.103 19.5 0.0297 6.62 0.0763 13.2 0.121 19.9 0.0862 13 0.154 26 0.209 39-3.16 0.873-5.12 0.98-8.33 0.223-1.2-0.276-1.2-0.276-2.42-0.557-0.825-0.199-1.65-0.398-2.5-0.604-0.84-0.195-1.68-0.391-2.55-0.592-2.07-0.482-4.14-0.975-6.2-1.47-0.0236-7.28-0.0411-14.6-0.0518-21.8-0.00514-3.38-0.0126-6.76-0.0236-10.1-0.0428-13.5-0.0324-27.1 0.517-40.6 0.039-0.975 0.078-1.95 0.118-2.95 0.211-4.57 0.549-8.99 1.44-13.5h-2c-0.158 1.06-0.158 1.06-0.32 2.14-0.769 3.24-2 5.75-3.56 8.7-0.881 1.68-0.881 1.68-1.78 3.4-0.634 1.2-1.27 2.39-1.9 3.59-0.969 1.84-1.94 3.68-2.9 5.52-0.637 1.21-1.27 2.43-1.91 3.64-2.38 4.54-4.68 9.11-6.94 13.7-2.91 5.9-6.06 11.6-9.31 17.4-3.94 6.91-7.66 13.9-11.4 21-3.13-0.809-6.25-1.62-9.38-2.44-0.889-0.23-1.78-0.46-2.7-0.697-0.851-0.222-1.7-0.445-2.58-0.674-0.786-0.204-1.57-0.408-2.38-0.619-1.97-0.573-1.97-0.573-3.97-1.57-0.745-29-1.15-58-1-87-1.38 2.9-2.75 5.79-4.12 8.69-0.416 0.876-0.832 1.75-1.26 2.65-2.19 4.62-4.34 9.25-6.43 13.9-3.28 7.16-6.98 14.1-10.6 21.1-3.08 5.87-6.14 11.7-9.11 17.7-0.31 0.615-0.62 1.23-0.939 1.86-1.99 3.99-3.78 8.03-5.5 12.1-7.48-1.23-14.7-2.89-22-5 1.64-5.54 1.64-5.54 3.37-7.73 2.2-3.07 3.51-6.43 4.95-9.9 2.31-5.44 4.79-10.5 7.96-15.5 2.87-4.77 5.38-9.73 7.95-14.7 3.18-6.11 6.46-12.2 9.78-18.2 1.53-2.8 3.07-5.6 4.6-8.4 1.02-1.87 2.05-3.75 3.08-5.62 2.89-5.28 5.67-10.6 8.32-16 0.666-1.33 1.33-2.67 2-4z" fill="#000000" opacity="1.000000" stroke="none"/>
<path transform="translate(406 1010)" d="m0 0c0.795 0.00967 1.59 0.0193 2.41 0.0293 11.4 0.234 18.6 2.85 27.7 10.2v2c0.587 0.267 1.17 0.534 1.78 0.809 8.61 4.61 13.4 13.8 18.5 21.8 3.15 5.02 6.59 9.82 10.1 14.6 1.65 2.69 2.31 4.63 2.68 7.73-0.559 0.317-1.12 0.634-1.7 0.961-5.11 2.97-9.97 6.18-14.7 9.66-6.37 4.64-13 8.86-19.7 13-7.2 4.5-14.3 9.18-21.3 13.9-3.69 2.49-7.4 4.85-11.2 7.08-7.16 4.23-13.7 9.33-20.4 14.3-4-1.23-5.29-3.81-7.2-7.36-0.369-0.707-0.737-1.41-1.12-2.14-2.55-4.73-5.1-9.32-8.25-13.7-11.3-15.7-16.3-29.4-14.4-48.8 1.86-10.9 7.09-20.5 16-27.3 1.33-0.9 2.66-1.8 4-2.69 1.25-0.997 2.5-2 3.75-3 10-7.5 20.7-11.4 33.2-11.2zm-32.9 42.2c-4.59 5.42-5.29 11.5-4.88 18.4 1.31 10.6 5.95 17.7 12.9 25.6 3.42-0.647 5.83-1.97 8.75-3.84 0.913-0.582 1.83-1.16 2.77-1.76 0.965-0.624 1.93-1.25 2.92-1.89 0.993-0.637 1.99-1.27 3.01-1.93 6.23-4.01 12.3-8.14 18.4-12.4 4.44-3.03 9.01-5.84 13.6-8.62 4.17-2.55 7.87-5.32 11.6-8.54-9.7-16-9.7-16-25.1-25.4-18.1-2.93-31.7 8.29-43.9 20.4z" fill="#000000" opacity="1.000000" stroke="none"/>

<path transform="translate(1313,649)" d="m0 0c1.13 4.84 2.25 9.67 3.36 14.5 0.38 1.64 0.761 3.29 1.14 4.93 0.552 2.37 1.1 4.75 1.65 7.12 0.17 0.724 0.34 1.45 0.515 2.19 3.87 16.9 3.72 33.2-5.67 48.2-9.07 12.4-22.5 20.3-37.6 22.7-13.8 1.31-27.8 1.91-39.6-6.43-1.27-1.05-2.52-2.14-3.75-3.25-1.02-0.915-1.02-0.915-2.05-1.85-18.3-17.4-21.4-43.1-23.9-67.2 1.05-0.231 2.11-0.461 3.19-0.699 4.09-0.896 8.18-1.79 12.3-2.69 2.8-0.613 5.59-1.23 8.39-1.84 9.02-1.98 18-3.97 27-6.01 43.9-9.95 43.9-9.95 55.1-9.76zm-22.7 25.2c-1.74 0.418-1.74 0.418-3.51 0.844-1.88 0.466-1.88 0.466-3.81 0.942-2.69 0.65-5.38 1.29-8.07 1.94-0.708 0.17-1.42 0.34-2.14 0.516-8.86 2.12-17.8 4.08-26.7 6.05-1.61 0.357-3.23 0.715-4.84 1.07-3.76 0.832-7.52 1.66-11.3 2.49-1.28 4.22-0.452 7.57 0.625 11.8 0.181 0.713 0.362 1.43 0.548 2.16 1.46 5.41 3.32 9.66 6.83 14.1h2c0.33 0.99 0.66 1.98 1 3 2.21 1.65 2.21 1.65 4.88 3.12 0.884 0.518 1.77 1.04 2.68 1.57 8.35 4.46 20 3.02 28.8 0.68 11-3.59 18.2-8.65 24.6-18.4 3.34-10 0.834-22.1-2-32-3.59-1.25-6.04-0.745-9.69 0.152z" fill="#000000" opacity="1.000000" stroke="none"/>
<path transform="translate(1075,1071)" d="m0 0c4.02 1.55 6.02 4.13 8.69 7.44 0.437 0.536 0.874 1.07 1.32 1.63 1.34 1.64 2.66 3.29 3.99 4.94 1.46 1.79 2.91 3.58 4.38 5.38 0.73 0.895 1.46 1.79 2.21 2.71 3.27 3.95 6.62 7.83 9.97 11.7 3.1 3.61 6.14 7.25 9.14 11 2.82 3.48 5.72 6.83 8.75 10.1 3.52 3.87 6.8 7.86 10 12 0.425 0.548 0.851 1.1 1.29 1.66 2.07 2.71 3.89 5.34 5.27 8.47h2v2h2v2h2c1.73 2.19 1.73 2.19 3.62 5 0.632 0.928 1.26 1.86 1.91 2.81 0.482 0.722 0.964 1.44 1.46 2.19-2.38 5.42-6.65 8.33-11.4 11.7-4.51 0.537-7.94-2.3-11.6-4.69 0.0619 1.3 0.124 2.6 0.188 3.94-0.0712 6.5-0.916 11.5-5.37 16.5-8.44 7.84-15.4 12-27 11.8-10.5-0.752-21-8.82-28-16.3-9.05-11-17.8-22.7-17.2-37.6 1.29-8.26 5.16-15.2 11.9-20.1 8.17-5.44 14.7-7.55 24.5-7.15-3.66-4.32-7.42-8.44-11.5-12.4-5.01-4.94-9.51-10.5-12.6-16.8-1.22-2.31-2.56-2.83-4.94-3.79 1.53-3.81 3.87-5.9 6.94-8.56 4.14-3.61 4.14-3.61 8.06-7.44zm4.42 66.3c-2.95 3.1-4.34 6.27-4.61 10.5 0.683 7.48 5.65 13.5 10.2 19.1 0.928 1.3 0.928 1.3 1.88 2.62 4.63 5.18 9.84 9.25 16.8 10.5 5.61-0.19 9.84-3.72 13.8-7.39 2.7-4.84 3.04-8.8 1.56-14-2.65-5.32-6.45-10-10.1-14.7-0.531-0.7-1.06-1.4-1.61-2.12-4.17-5.22-8.32-7.98-14.8-9.88-5.37 0-9.06 1.91-13.1 5.32z" fill="#000000" opacity="1.000000" stroke="none"/>
<path transform="translate(408 536)" d="m0 0c2.57 1.48 5.01 3.08 7.46 4.75 1.17 0.753 2.35 1.51 3.52 2.26 7.47 4.92 12.8 9.35 16.5 17.7 0.334 0.666 0.668 1.33 1.01 2.02 2.97 6.59 3.13 14.2 0.926 21.1-4.6 10.6-12.6 16.6-22.9 20.9 1.46 0.532 1.46 0.532 2.95 1.07 12.9 4.9 24.4 11.7 36.1 18.9-0.791 4.31-2.15 8.17-3.88 12.2-0.257 0.628-0.513 1.26-0.777 1.9-1.45 3.4-2.2 4.81-5.35 6.91-0.515-0.315-1.03-0.631-1.56-0.955-12.9-7.84-25.9-15-39.4-21.8-6.12-3.11-12.1-6.33-17.9-9.91-2.82-1.69-5.74-3.13-8.71-4.54-6.27-3.08-12.2-6.52-18.2-10.1-5.93-3.53-12-6.69-18.2-9.64 0.583-4.42 2.27-7.52 4.56-11.3 0.961-1.6 0.961-1.6 1.94-3.24 0.494-0.808 0.987-1.62 1.5-2.45 3.73 0.502 7.36 1.04 11 2-0.495-1.09-0.99-2.19-1.5-3.31-2.39-6.42-2.4-12.8-0.375-19.3 11.7-21 29.6-25.8 51.4-15.1zm-34.5 20.8c-3.81 4.91-4.83 9.07-4.56 15.3 1.42 6.82 7.14 10.6 12.6 14.5 7.01 4.23 16 7.71 24.2 6.95 4.55-1.16 7.68-3.33 10.6-7.02 1.75-3.95 2.87-7.39 1.6-11.7-5.23-11.6-15.4-16-26.4-21-6.74-2.25-12.6-1.9-18 3z" fill="#000000" opacity="1.000000" stroke="none"/>
<path transform="translate(520 1114)" d="m0 0c8.14 4.99 12.3 11.4 16 20.2 0.729 3.14 0.945 5.76 1 9 4.95-2.47 4.95-2.47 10-5 1.84 1.4 3.68 2.82 5.5 4.25 1.02 0.789 2.04 1.58 3.09 2.39 0.794 0.779 1.59 1.56 2.41 2.36 0 4.71-0.787 5.4-3.75 8.88-2.22 2.62-4.27 5.16-6.14 8.04-2.84 4.15-6.22 7.61-9.69 11.2-3.23 3.42-5.83 6.91-8.42 10.9-1.79 2.13-3.59 4.23-5.44 6.31-4.61 5.28-8.92 10.7-13.1 16.3-3.9 5.2-7.91 10.2-12.4 14.9-4.28 4.53-7.86 9.15-11.1 14.5-4.08-1.42-7.17-3.41-10.6-6-2.77-2.06-5.51-4.09-8.38-6 1.43-4.42 3.6-6.99 6.81-10.3 4.65-4.91 9-10 13.2-15.2 0.56-0.691 1.12-1.38 1.7-2.09 2.2-2.73 4.29-5.42 6.24-8.34-0.727 0.107-1.45 0.214-2.2 0.324-8.53 1.02-17 0.867-24.4-4.04-6.55-6.18-10.9-14.4-11.2-23.4 0.448-7.03 2.63-12.7 5.81-18.9 0.652-1.41 0.652-1.41 1.32-2.84 5.02-10.2 12.9-17.1 21.9-23.7 0.578-0.422 1.16-0.843 1.75-1.28 9.04-6.33 20.1-7.67 30-2.46zm-32.6 36.5c-3.62 5.54-6.24 11-5.39 17.8 2.56 4.91 6.16 9.23 11 12 4.49 1.03 7.87 0.541 12-1.44 9.26-7.91 19.5-17.8 21.4-30.4-0.801-5.84-3.92-9.84-8.25-13.7-13.4-6.3-23.6 5.75-30.8 15.7z" fill="#000000" opacity="1.000000" stroke="none"/>
<path transform="translate(1255 507)" d="m0 0c2.2 1.49 3.05 2.69 4.3 5.01 0.393 0.715 0.786 1.43 1.19 2.17 0.396 0.746 0.791 1.49 1.2 2.26 0.617 1.13 0.617 1.13 1.25 2.29 1.01 1.86 2.01 3.72 3 5.59-2.91 3.12-6.19 4.7-10 6.5-7.32 3.55-14.4 7.5-21.4 11.6-4.8 2.83-9.65 5.41-14.6 7.86-1.26 0.638-2.52 1.28-3.77 1.92-0.597 0.303-1.19 0.606-1.81 0.918-1.22 0.619-2.44 1.24-3.66 1.87-4.54 2.29-4.54 2.29-6.76 2.29v2c1.24 0.108 2.47 0.217 3.75 0.328 9.25 1.03 18.2 3.64 27.2 5.95 2.6 0.626 5.18 1.13 7.82 1.57 6.83 1.31 10.7 2.91 14.6 8.7 2.86 4.66 5.33 9.48 7.59 14.5-3.8 1.39-6.59 0.614-10.5-0.328-1.92-0.458-1.92-0.458-3.87-0.926-1.35-0.332-2.7-0.664-4.04-0.996-2.61-0.633-5.22-1.26-7.84-1.89-1.28-0.31-2.56-0.62-3.89-0.939-5.94-1.42-11.9-2.67-17.9-3.92-0.261 0.674-0.522 1.35-0.791 2.04-6.74 17.3-14.1 33.7-23.2 50-2.61-1.31-2.9-2.52-4.13-5.15-0.395-0.84-0.79-1.68-1.2-2.55-0.408-0.884-0.816-1.77-1.24-2.68-0.412-0.877-0.824-1.75-1.25-2.66-1.54-3.3-3.04-6.51-4.19-9.97 0.934-2.29 0.934-2.29 2.44-5.06 3.22-6.16 6.06-12.4 8.85-18.8 0.486-1.11 0.486-1.11 0.983-2.24 0.286-0.657 0.573-1.31 0.868-1.99 0.609-1.35 1.27-2.67 1.97-3.97 1.1-2.04 1.1-2.04 0.892-4.94-5.66-2.26-10.7-3.24-16.5-1.05-4.1 1.98-7.82 4.19-11.4 6.93-1.52 1.05-1.52 1.05-3.06 2.12-4.02-1.34-4.47-3.1-6.5-6.75-0.588-1.05-1.18-2.09-1.78-3.17-0.567-1.02-1.13-2.03-1.72-3.08-0.588-0.892-1.18-1.78-1.78-2.7-0.402-0.758-0.804-1.52-1.22-2.3 1-3 1-3 2.95-4.18 0.904-0.414 1.81-0.828 2.74-1.25 6.02-2.89 11.9-5.99 17.8-9.19 0.945-0.516 1.89-1.03 2.86-1.56 7.38-4.05 14.7-8.23 22-12.4 6.69-3.84 13.5-7.45 20.3-11 3.95-2.06 7.84-4.16 11.6-6.5 4.16-2.54 8.37-5 12.6-7.38 0.644-0.375 1.29-0.751 1.95-1.14 4.63-2.54 4.63-2.54 7.23-1.68z" fill="#000000" opacity="1.000000" stroke="none"/>
<path transform="translate(1013,309)" d="m0 0c3.13 2.19 6.08 4.54 9 7 1.01 0.804 2.02 1.61 3.06 2.44 0.639 0.516 1.28 1.03 1.94 1.56-0.301 4.28-1.82 6.19-5 8.99-0.774 0.653-0.774 0.653-1.56 1.32-0.52 0.454-1.04 0.909-1.58 1.38-1.28 1.11-2.57 2.21-3.86 3.31-3.04-1.38-5.34-3.03-7.88-5.19-3.89-3.06-7.88-5.53-12.2-7.81-1.14-0.598-2.27-1.2-3.45-1.81-4.01-1.39-6.34-1.22-10.4-0.188-3.21 2.44-4.7 4.11-6 7.94 0 6.55 4.41 11 8.56 15.6 21.6 24.6 21.6 24.6 20.9 37.1-1.84 10.4-7.46 18.7-15.4 25.4-8.91 4.91-21.2 4.55-30.9 2.19-8.91-2.92-16.5-7.81-24.1-13.2-0.815-0.539-1.63-1.08-2.47-1.63-1.97-1.43-1.97-1.43-4.53-4.37-0.173-3.34 0.0407-4.91 1-8 0.325-1.05 0.65-2.1 0.984-3.18 0.961-2.96 1.97-5.89 3.02-8.82 3.94 0.557 5.81 2.42 8.62 5.12 8.93 8.22 16.9 13.9 29.1 15.3 4.18-0.562 6.19-1.52 9.25-4.44 1.53-4.02 1.46-6.91-0.219-10.9-1.9-3.33-4-6.28-6.34-9.32-0.434-0.563-0.868-1.13-1.32-1.71-2.95-3.78-6.11-7.27-9.43-10.7-7.29-7.95-10.6-15.3-10.1-26.2 1.08-8.02 4.28-14.9 10.7-19.9 16.6-12.1 33.9-7.11 50.7 2.78z" fill="#000000" opacity="1.000000" stroke="none"/>
<path transform="translate(373,625)" d="m0 0c1.18 0.473 2.37 0.946 3.59 1.43 8.69 3.74 13.8 8.28 18.4 16.6 0.451 0.793 0.902 1.59 1.37 2.4 4.34 9 3.88 19.5 1.01 28.9-4.04 10.5-9.71 19.8-20 25-13.1 5.38-25 4.43-38.3-0.348-11.1-5.14-21.6-12.5-26.2-24.2-3.77-12.7-0.703-24.2 5.16-35.8 5.62-9.44 13.9-15.2 24.4-18 10.9-2.07 20.4-0.124 30.6 4zm-37.6 21.4c-3.71 4.33-4.6 7.81-4.78 13.4-0.049 1.02-0.098 2.03-0.148 3.08 0.687 4.07 2.48 6.46 5.52 9.11 2.34 1.52 4.76 2.65 7.31 3.75 0.626 0.29 1.25 0.58 1.9 0.879 7.75 3.48 16.6 6.3 25 3.68 4.79-2.13 7.28-4.6 9.79-9.31 1.63-4.88 2.25-10.2 0.117-15-6.83-9.16-20.4-12.3-31.1-14-5.12 0-9.68 0.921-13.6 4.43z" fill="#000000" opacity="1.000000" stroke="none"/>
<path transform="translate(1191 1057)" d="m0 0c4.94 4.54 9.48 9.35 13.1 15.1 0.398 0.598 0.797 1.2 1.21 1.81 3.9 6.62 4.5 14.4 3.39 21.9-2.78 10.6-10.1 18.5-17.6 26.3-0.565 0.614-1.13 1.23-1.71 1.86-6.01 5.92-14.3 7.24-22.5 7.45-9.41-0.375-16.1-2.98-23.8-8.31-0.838-0.566-1.68-1.13-2.54-1.71-8.37-6.13-17.8-16.7-19.5-27.3-1.34-15.3 2.84-24.9 12-37 5.98-6.76 15.4-10.6 24.2-11.8 12.1-0.682 24.7 3.9 33.8 11.8zm-47.8 15.7c-2.65 4.01-3.87 7.5-3.19 12.3 2.48 5.05 5.5 9.08 9.31 13.2 0.448 0.507 0.896 1.01 1.36 1.54 5.62 6.13 12.9 10.2 21.3 10.6 4.62-0.15 8.13-1.42 11.4-4.78 4.37-5.11 4.9-8.2 4.84-14.8-0.395-3.82-1.81-5.87-4.29-8.76-0.575-0.782-1.15-1.56-1.74-2.37-2.56-2.98-5.4-5.13-8.63-7.32-0.828-0.585-0.828-0.585-1.67-1.18-10.6-7.27-19.5-7.29-28.8 1.56z" fill="#000000" opacity="1.000000" stroke="none"/>
<path transform="translate(1100,395)" d="m0 0c18.4 5.51 33.4 15 42.7 32.1 2.36 5.2 2.88 9.73 1.37 15.2-2.24 5.94-6.18 10.7-10.1 15.7-0.907 1.21-0.907 1.21-1.83 2.45-2.62 3.48-5.26 6.73-8.42 9.73-3.98 3.83-7.24 8.17-10.6 12.5-3.84 4.96-7.89 9.68-12.1 14.3-3.28-1.49-5.93-3.39-8.75-5.62-1.2-0.947-1.2-0.947-2.42-1.91-0.603-0.482-1.21-0.964-1.83-1.46 0.309-0.846 0.619-1.69 0.938-2.56 1.08-3.49 1.63-6.82 2.06-10.4-0.99 0.495-0.99 0.495-2 1-8.62 0.955-14.7-0.347-22-5-0.722-0.458-1.44-0.915-2.19-1.39-5.7-3.94-10.6-8.95-12.8-15.6-0.843-8.43 0.241-15.2 5.51-21.9 5.06-5.46 11.3-10.3 19-10.6 13.8 0.972 27.9 9.86 37.1 19.8 0.464 0.545 0.928 1.09 1.41 1.65 3.79-1.73 5.27-3.12 7-7 0.523-4.11 0.393-6.28-1.61-9.93-2.64-3.39-5.46-5.54-9.08-7.76-0.616-0.388-1.23-0.776-1.87-1.18-4.65-2.85-9.14-4.77-14.4-6.14 0.642-2.48 1.29-4.96 1.94-7.44 0.182-0.707 0.365-1.41 0.553-2.14 1.4-5.31 1.4-5.31 2.51-6.42zm-24 51c-2.38 3.57-2.65 4.79-2 9 3.26 5.53 7.98 8.95 14 11 5.41 0.902 9.58-0.995 14-4 2.35-2.1 4.53-4.19 6-7-0.292-2.44-0.577-3.63-2.46-5.26-0.61-0.35-1.22-0.699-1.85-1.06-0.665-0.389-1.33-0.777-2.01-1.18-1.05-0.587-1.05-0.587-2.12-1.19-0.694-0.403-1.39-0.806-2.1-1.22-8.32-4.81-14.1-6.02-21.5 0.908z" fill="#000000" opacity="1.000000" stroke="none"/>
<path transform="translate(790,291)" d="m0 0c1.05 9.81 2.09 19.6 3.13 29.4 0.483 4.55 0.966 9.11 1.45 13.7 0.47 4.4 0.936 8.79 1.4 13.2 0.178 1.68 0.356 3.35 0.536 5.03 0.252 2.35 0.5 4.7 0.747 7.05 0.0748 0.689 0.15 1.38 0.227 2.09 0.407 3.91 0.508 7.61 0.508 11.6-8.41 0.495-8.41 0.495-17 1-3-6-3-6-3-9-2.89 1.53-4.78 2.68-6.69 5.38-5.82 6.61-14.8 8.94-23.3 9.62-7.72 0.0915-14-1.55-19.9-6.66-7.69-7.97-9.61-18.1-10.6-28.8-0.105-1.05-0.211-2.1-0.319-3.18-0.218-2.2-0.43-4.4-0.634-6.6-0.312-3.34-0.644-6.68-0.98-10-0.211-2.15-0.421-4.3-0.629-6.45-0.0968-0.986-0.194-1.97-0.293-2.99-0.565-6.13-0.775-12.2-0.66-18.3 3.48-0.362 6.96-0.714 10.4-1.06 1.49-0.156 1.49-0.156 3.01-0.314 1.42-0.14 1.42-0.14 2.86-0.283 0.875-0.089 1.75-0.178 2.65-0.27 0.674-0.0231 1.35-0.0462 2.04-0.0701 1.54 1.54 1.33 3.14 1.54 5.29 0.0936 0.912 0.187 1.82 0.284 2.76 0.0979 0.995 0.196 1.99 0.297 3.01 0.215 2.1 0.431 4.2 0.646 6.29 0.335 3.31 0.668 6.63 1 9.94 0.322 3.19 0.65 6.39 0.978 9.58 0.0959 0.978 0.192 1.96 0.291 2.97 1.17 12.4 1.17 12.4 6.96 23.2 4.27 2.85 7.99 2.49 13 2 5.21-1.74 7.48-4.15 10-9 1.35-6.34 0.938-12.6 0.625-19-0.0734-1.67-0.0734-1.67-0.148-3.37-0.324-7.13-0.77-14.2-1.29-21.4-0.293-5.09-0.273-10.2-0.188-15.3 3.5-1.17 6.85-1.39 10.5-1.62 0.677-0.0516 1.35-0.103 2.05-0.156 3.17-0.213 5.4-0.234 8.45 0.781z" fill="#000000" opacity="1.000000" stroke="none"/>
<path transform="translate(390,920)" d="m0 0c11.9 12 19.3 28.8 19.3 45.5-0.103 5.97-1.02 10.4-4.32 15.5-0.378 0.659-0.755 1.32-1.14 2-6.13 9.49-17.4 15.6-27.9 19-0.944 0.347-1.89 0.694-2.86 1.05-9.44 2.85-19.7 2.99-28.7-1.24-11.6-6.42-16.9-15.8-21.3-28.1-2.4-8.41-1.72-16.8 1.82-24.7 6.3-10.8 13.8-16.2 25.4-20.3 2.64-0.681 4.86-0.712 7.58-0.664 11.5 27.5 11.5 27.5 15.1 40.1 0.769 2.51 1.64 4.65 2.9 6.94 4.88-0.454 7.64-1.37 11-5 3.96-6.97 3.04-13.5 1-21-2.96-8.8-8.14-16.7-15-23 0.843-0.349 1.69-0.699 2.55-1.06 1.1-0.455 2.19-0.91 3.32-1.38 1.09-0.452 2.18-0.905 3.3-1.37 5.19-2.19 5.19-2.19 7.82-2.19zm-48 37c-2.98 3.44-3.99 6.32-4.06 10.9 1.06 5.55 4.05 10.2 8.19 14 3.99 2.26 7.37 2.3 11.9 2.06 2.83-0.897 2.83-0.897 5-2-2.24-7-4.87-13.8-7.69-20.6-0.416-1.01-0.831-2.02-1.26-3.06-1.01-2.46-2.03-4.92-3.05-7.38-3.12 0-6.78 4.05-9 6z" fill="#000000" opacity="1.000000" stroke="none"/>
<path transform="translate(1044 1170)" d="m0 0c4.73 3.09 7.48 6.71 10.3 11.5 0.426 0.702 0.852 1.4 1.29 2.13 6.71 11.3 12.1 23.5 8.97 36.9-3.85 10.8-12.2 20.2-22.2 25.7-9.05 4.18-20.1 5.33-29.8 2.81-10.2-3.92-17.9-14-22.7-23.5-0.92-3.08-0.825-4.48 0.25-7.52 2.48-1.82 2.48-1.82 5.77-3.49 0.589-0.307 1.18-0.614 1.79-0.93 1.89-0.982 3.79-1.94 5.7-2.89 2.47-1.26 4.93-2.53 7.39-3.8 0.609-0.313 1.22-0.625 1.85-0.948 5.48-2.84 10.7-6.05 15.9-9.36 2.62-1.58 2.62-1.58 5.62-2.58-2.56-4.86-5.52-7.69-10.4-10.2-8.1-2.31-14.4 0.622-21.6 4.25-7.29 4.12-11.9 8.68-16 16-3-1-3-1-4.64-3.58-0.531-1.07-1.06-2.13-1.61-3.23-0.812-1.59-0.812-1.59-1.64-3.21-1.19-3.19-1.23-3.91-0.109-6.98 1.85-2.11 3.68-4.05 5.69-6 0.518-0.521 1.04-1.04 1.57-1.58 5.64-5.56 11.5-8.96 18.9-11.6 0.703-0.26 1.41-0.519 2.13-0.787 13.1-4.8 25.2-4.07 37.5 3zm-15.8 43c-3.41 1.88-6.71 3.91-10 6-1.66 1-3.33 2-5 3 0.239 3.22 1.23 4.24 3.5 6.62 3.81 2.93 7.7 4.2 12.5 4.38 5.32-0.917 10.4-2.88 14-7 2.47-6.01 2.26-11 0-17-5.29-1.76-10.2 1.69-15 4z" fill="#000000" opacity="1.000000" stroke="none"/>
<path transform="translate(1253 938)" d="m0 0c10.4 6.22 17.8 13.6 21.2 25.3 2.7 12.5-1.05 24.2-7.3 35.1-5.14 7.73-10.9 11.1-19.9 12.9-0.684 0.165-1.37 0.33-2.07 0.5-10.5 1.92-22.7-1.7-31.9-6.5 0.685-4.49 2.3-8.47 4.06-12.6 0.305-0.734 0.61-1.47 0.925-2.22 1.69-4.06 3.42-8.11 5.18-12.1 0.357-0.826 0.714-1.65 1.08-2.5 0.685-1.58 1.38-3.16 2.08-4.74 2.37-5.49 3.69-10.9 4.67-16.8-4.76-2.38-11.3-1.44-16.3-0.125-9.63 7.61-12.5 21.3-13.9 32.9-0.271 2.42-0.517 4.83-0.75 7.25-2.3-0.732-4.59-1.48-6.88-2.25-0.651-0.205-1.3-0.41-1.97-0.621-2.68-0.911-4.75-1.68-6.66-3.82-0.735-3.48-0.103-6.63 0.574-10.1 0.144-0.748 0.289-1.5 0.437-2.27 0.471-2.34 0.977-4.66 1.5-6.98 0.238-1.07 0.238-1.07 0.48-2.16 3.28-14 9.97-23.4 22.1-31.5 13.7-7.39 30.4-3.63 43.4 3.3zm-7.03 23.4c-3.14 6.6-6.18 13.2-8.94 20-0.422 1.03-0.843 2.06-1.28 3.12-0.845 3.09-0.685 4.83 0.215 7.88 8.01 0.541 8.01 0.541 15.6-1.69 2.43-2.31 3.94-4.33 5.44-7.31 0.33-0.66 0.66-1.32 1-2 1.01-4.95 0.927-8.6-1.9-12.9-2.26-2.57-4.44-4.96-7.1-7.12h-3z" fill="#000000" opacity="1.000000" stroke="none"/>
<path transform="translate(570,1159)" d="m0 0c8.06 0.41 14.6 2.81 22 6 1.19 0.495 2.37 0.99 3.59 1.5 12.2 5.5 20.6 13.9 25.4 26.5 3.67 11.9-0.749 23.2-6.1 33.8-4.97 9.39-11.8 18.6-22.1 22.3-4.49 1.01-8.63 1.19-13.2 1.18-0.799 0.0161-1.6 0.0322-2.42 0.0488-10.4 0.00844-18.9-3.84-26.8-10.5-7.24-8.36-12-15.5-11.8-26.8 0.996-9.53 5.51-17.9 10.3-26 5.25 0.51 9.37 1.8 14.1 4.25 0.666 0.338 1.33 0.677 2.02 1.03 7.37 3.82 14.5 8.11 21.6 12.4 0.898 0.543 1.8 1.09 2.72 1.65 0.799 0.488 1.6 0.977 2.42 1.48 2.1 1.11 3.9 1.73 6.22 2.18 2.1-6.69 3.26-13.4 0.0469-19.9-8.32-11.2-23.2-13.7-36-16.1 0-3.58 0.858-4.61 2.88-7.5 0.534-0.773 1.07-1.55 1.62-2.34 0.746-1.07 0.746-1.07 1.51-2.16 0.66-0.99 1.32-1.98 2-3zm-9 50c-3.33 6.4-3.32 10.2-1.38 17.2 2.21 2.81 5.23 4.2 8.38 5.75 0.825 0.433 1.65 0.866 2.5 1.31 4.59 1.26 8.38 0.149 12.7-1.62 2.8-1.68 4.84-3.08 6.81-5.69-0.0703-2.03-0.0703-2.03-1-4-1.66-1.41-1.66-1.41-3.79-2.47-0.777-0.425-1.55-0.849-2.36-1.29-0.819-0.43-1.64-0.86-2.48-1.3-0.795-0.434-1.59-0.868-2.41-1.31-8.07-4.72-8.07-4.72-17-6.62z" fill="#000000" opacity="1.000000" stroke="none"/>
<path transform="translate(451 458)" d="m0 0c7.02 3.69 15.4 8.22 20.4 14.5-0.0708 3.57-2.19 5.81-4.38 8.5-0.606 0.753-1.21 1.51-1.84 2.28-0.59 0.732-1.18 1.46-1.79 2.22-0.529 0.753-1.06 1.51-1.6 2.28-0.461 0.567-0.923 1.13-1.4 1.72h-2v2c-1.12 1.09-2.25 2.17-3.38 3.25-2.08 2.25-3.79 4.69-5.56 7.19-3.06 4.3-6.19 7.98-10.1 11.6 0.671 3.1 0.671 3.1 3 4.2 5.92 2.42 9.76 3.46 16 1.8 3.31-1.95 3.31-1.95 6-4h2c0.394-0.837 0.394-0.837 0.797-1.69 1.33-2.54 2.86-4.86 4.45-7.25 3.93-6.09 6.87-12.4 9.75-19.1 1.44 0.933 2.88 1.87 4.31 2.81 0.801 0.522 1.6 1.04 2.43 1.58 3.74 2.65 3.74 2.65 5.26 4.61 1.28 8.39-4.31 16-8.72 22.6-7.8 10.5-19 19.5-32 21.9-13.7 1.73-23.2-4-34.1-11.8-7.99-6.48-15.2-17.5-17.2-27.7-1.13-11.4 2.24-20.5 9.02-29.6 9.92-11.8 25-20.4 40.6-13.9zm-27.4 22.5c-2.6 3.6-4.11 6.23-4.78 10.7 0.997 5.87 3.75 9.84 7.56 14.3 3.21-1.34 4.53-2.43 6.12-5.5 2.8-4.8 6.55-8.32 10.6-12.1 2.24-2.33 3.77-4.57 5.3-7.39-3.79-4.54-7.79-5.52-13.5-6.38-4.84 0.725-8.12 2.8-11.3 6.4z" fill="#000000" opacity="1.000000" stroke="none"/>
<path transform="translate(1294 772)" d="m0 0c7.77 6.46 12.8 14.3 14.5 24.3 0.783 10.8 0.306 21.9-6 31-8.38 9.12-18.8 12.9-31 14h-12v-54c-10.7 1.5-10.7 1.5-18 8-5.55 10.4-3.02 22.2 0 33 0.99 2.31 1.98 4.62 3 7h-17c-5.74-9.57-6.77-21-6-32 0.0567-0.897 0.113-1.79 0.172-2.72 0.736-6.52 2.78-11.9 5.64-17.8 0.331-0.683 0.663-1.37 1-2.07 4.44-8.57 11.5-11.2 20.2-14.4 1.01-0.377 1.01-0.377 2.03-0.762 13.1-4.05 32.2-1.65 43.4 6.49zm-19.5 15.3c-1.35 1.12-1.35 1.12-1.11 4.05 1.59e-4 1.35 0.00585 2.7 0.0159 4.05 0.00141 0.709 0.00283 1.42 0.00429 2.15 0.00561 2.27 0.0182 4.54 0.0309 6.82 0.00501 1.54 0.00958 3.07 0.0137 4.61 0.011 3.78 0.0283 7.55 0.0488 11.3 1.43-0.12 2.86-0.251 4.29-0.387 1.19-0.108 1.19-0.108 2.41-0.218 4.28-0.737 7.02-3.21 10.1-6.08 2.99-5.82 2.35-12 1.05-18.3-1.17-2.78-2.5-4.17-4.86-6.04-2.99-0.942-2.99-0.942-6.19-1.31-1.07-0.161-2.13-0.322-3.23-0.488-0.852-0.0657-1.7-0.131-2.58-0.199z" fill="#000000" opacity="1.000000" stroke="none"/>
<path transform="translate(341,757)" d="m0 0c0.33 17.8 0.66 35.6 1 54 9.44-1.64 9.44-1.64 16.1-7.66 2.8-5.27 3.52-9.6 3.38-15.5-0.00846-0.825-0.0169-1.65-0.0256-2.5-0.209-7.29-1.79-13.5-4.47-20.3-0.495-1.49-0.495-1.49-1-3 5.61 0.33 11.2 0.66 17 1 6.65 12.9 7.65 28.1 4.25 42.1-2.95 8.74-7.32 17.8-15.2 22.9-14.2 6.17-31.6 7.57-46.6 2.96-9.98-3.96-17.2-11.4-21.7-21.1-3.76-9.91-3.19-24 1.05-33.6 2.02-3.58 4.24-6.42 7.25-9.22 0.66-0.619 1.32-1.24 2-1.88 11.3-9.72 21.7-8.12 37-8.12zm-22.4 21.7c-0.947 0.334-1.89 0.668-2.87 1.01-2.92 1.41-4.62 2.83-6.69 5.3-1.98 5.94-1.81 12.7 0.25 18.6 3.2 4.45 6.48 6.04 11.8 7.44 2.71 0.252 2.71 0.252 5 0 1.35-1.12 1.35-1.12 1.11-4.05-1.59e-4 -1.35-0.00585-2.7-0.0159-4.05-0.00212-1.06-0.00212-1.06-0.00429-2.15-0.00561-2.27-0.0182-4.54-0.0309-6.82-0.00501-1.54-0.00958-3.07-0.0137-4.61-0.011-3.78-0.0283-7.55-0.0488-11.3-3.68-1.23-4.85-0.621-8.44 0.688z" fill="#000000" opacity="1.000000" stroke="none"/>
<path transform="translate(682,278)" d="m0 0c0.868 2.25 1.72 4.5 2.56 6.75 0.37 0.951 0.37 0.951 0.748 1.92 0.922 2.49 1.7 4.72 1.64 7.4-0.949 1.93-0.949 1.93-3.61 3.18-1.17 0.343-2.33 0.687-3.53 1.04-0.626 0.189-1.25 0.379-1.9 0.574-2.01 0.603-4.02 1.18-6.03 1.76-1.33 0.397-2.67 0.795-4 1.2-5.94 1.78-11.9 3.48-17.9 5.18 0.623 3 1.25 6 1.88 9 0.174 0.839 0.348 1.68 0.527 2.54 1.09 5.19 2.28 10.3 3.6 15.5 1.37-0.356 1.37-0.356 2.77-0.719 3.4-0.883 6.8-1.76 10.2-2.64 1.47-0.381 2.94-0.762 4.41-1.14 2.12-0.55 4.23-1.1 6.35-1.65 1.27-0.33 2.55-0.66 3.86-1 2.8-0.695 5.58-1.32 8.41-1.85 0.656 1.52 1.3 3.04 1.94 4.56 0.539 1.27 0.539 1.27 1.09 2.57 1.11 3.28 1.57 6.44 1.97 9.87-22.4 7.74-22.4 7.74-34 10 0.159 0.574 0.317 1.15 0.48 1.74 1.94 7.07 3.81 14.2 5.67 21.2 1.58 6.02 3.19 12 4.85 18-4.54 2.11-9.1 4.12-13.8 5.81-0.708 0.254-1.42 0.508-2.14 0.77-2.36 0.482-3.76 0.0602-6.04-0.582-0.306-1.28-0.611-2.55-0.926-3.87-2.97-12-6.52-23.8-10.5-35.5-5.71-16.8-10.6-33.7-14.9-50.9-0.747-2.99-1.54-5.96-2.36-8.93-0.377-1.37-0.377-1.37-0.762-2.77-0.273-0.982-0.273-0.982-0.551-1.98 7.52-2.75 15.1-4.85 22.9-6.81 9.19-2.33 18.2-5.01 27.2-8 0.865-0.285 1.73-0.57 2.62-0.864 0.76-0.255 1.52-0.51 2.3-0.773 2-0.547 2-0.547 5-0.547z" fill="#000000" opacity="1.000000" stroke="none"/>
<path transform="translate(1306,853)" d="m0 0c-0.377 5.76-1.21 11.2-2.54 16.9-0.408 1.73-0.408 1.73-0.825 3.5-0.209 0.871-0.417 1.74-0.632 2.64-22 3.51-43.9 6.86-66 9 0.764 0.268 1.53 0.536 2.32 0.812 12.4 4.52 23.5 10.6 34.5 17.9 5.26 3.46 10.8 6.06 16.6 8.59 2.67 1.7 2.67 1.7 3.64 3.79 0.0349 4.33-0.668 8.46-1.41 12.7-0.148 0.884-0.295 1.77-0.447 2.68-0.364 2.17-0.736 4.34-1.12 6.51-4.95-1.75-9.35-4.37-13.9-7-0.844-0.489-1.69-0.978-2.56-1.48-5.81-3.41-11.4-7.01-17-10.8-4.62-3.13-9.36-5.98-14.2-8.77-6.34-3.66-12.4-7.57-18.3-11.8-3.6-2.5-7.29-4.81-11-7.11 0.555-3.46 1.15-6.92 1.75-10.4 0.157-0.985 0.315-1.97 0.477-2.98 0.251-1.41 0.251-1.41 0.508-2.85 0.147-0.869 0.293-1.74 0.444-2.63 0.821-2.15 0.821-2.15 2.42-3.36 3.29-1.09 6.62-1.68 10-2.24 0.766-0.131 1.53-0.262 2.32-0.397 1.66-0.284 3.33-0.565 4.99-0.844 4.48-0.751 8.96-1.52 13.4-2.29 0.937-0.161 1.87-0.322 2.84-0.488 12.8-2.21 25.6-4.63 38.3-7.04 0.886-0.167 1.77-0.333 2.69-0.505 1.66-0.313 3.33-0.627 4.99-0.944 5.54-1.04 5.54-1.04 7.76-1.04z" fill="#000000" opacity="1.000000" stroke="none"/>
<path transform="translate(294,847)" d="m0 0c21.3 3.04 42.5 6.52 63.7 10.8 0.99 0.196 1.98 0.392 3 0.594 2.82 0.56 5.63 1.13 8.45 1.7 1.26 0.251 1.26 0.251 2.55 0.508 0.776 0.161 1.55 0.322 2.35 0.487 0.673 0.137 1.35 0.275 2.04 0.416 2.18 0.613 3.99 1.37 5.93 2.54 2.98 7.17 3.56 15.3 4 23-1.01 0.51-2.01 1.02-3.05 1.55-8.93 4.59-17.5 9.56-25.9 15-5.75 3.69-11.6 7.08-17.6 10.4-3.69 2.04-7.15 4.21-10.6 6.71-14.2 10.4-14.2 10.4-19.9 10.4-0.99-7.26-1.98-14.5-3-22 29.2-17.2 29.2-17.2 40.2-22.6 2.61-1.31 5.11-2.72 7.63-4.2 3.36-1.91 6.22-2.89 10.1-3.19v-2c-0.777 0.0334-1.55 0.0667-2.35 0.101-10.8 0.251-21.1-1.27-31.8-2.98-1.76-0.273-3.52-0.545-5.29-0.816-8.87-1.37-17.7-2.8-26.6-4.31-0.486-1.98-0.963-3.96-1.44-5.94-0.4-1.65-0.4-1.65-0.809-3.34-0.856-4.23-1.35-8.43-1.75-12.7z" fill="#000000" opacity="1.000000" stroke="none"/>
<path transform="translate(1057,343)" d="m0 0c6.19 0.121 9.33 2.28 14 6-0.422 0.82-0.843 1.64-1.28 2.48-0.548 1.08-1.1 2.16-1.66 3.27-0.545 1.07-1.09 2.13-1.65 3.23-1.57 3.1-1.57 3.1-2.41 7.02 8.91 4.95 8.91 4.95 18 10-0.892 4.46-1.49 6.19-3.94 9.75-0.525 0.779-1.05 1.56-1.59 2.36-1.47 1.89-1.47 1.89-3.47 2.89-1.63-0.697-1.63-0.697-3.55-1.84-0.697-0.405-1.39-0.81-2.11-1.23-0.728-0.433-1.46-0.866-2.21-1.31-1.43-0.846-2.87-1.69-4.3-2.52-0.637-0.378-1.27-0.756-1.93-1.15-1.95-0.985-3.76-1.51-5.89-1.96-0.285 0.599-0.57 1.2-0.863 1.81-3.18 6.54-6.8 12.7-10.7 18.8-5.7 8.92-5.7 8.92-10.4 18.4 1.06 3.95 2.48 5.55 5.56 8.19 4.33 2.28 8.71 3.58 13.4 4.81-0.675 3.45-2.01 6.15-3.75 9.19-0.49 0.88-0.98 1.76-1.48 2.67-1.77 2.14-1.77 2.14-4.18 3.04-8.9 0.377-17.9-6.72-24.6-11.9-5.13-5-7.17-8.41-7.31-15.6 0.0666-6.54 1.03-10.8 4.31-16.4 0.521-0.933 1.04-1.87 1.58-2.83 2.87-5.03 5.9-9.94 9.05-14.8 5.95-8.2 5.95-8.2 8.13-17.6-1.02-2.47-2.55-3.4-4.75-4.82 0.75-6.62 0.75-6.62 3-10 2.56-0.202 5-0.266 7.56-0.25 6.77-0.158 10.7-1.33 15.8-6.06 0.529-0.558 1.06-1.12 1.6-1.69 0.66-0.66 1.32-1.32 2-2z" fill="#000000" opacity="1.000000" stroke="none"/>
<path transform="translate(1187 471)" d="m0 0c11 8.89 21.1 20.1 23.9 34.4-5.52 3.22-11.7 5.14-18 6-3.35-3.35-4.08-8.07-5.49-12.5-2.04-4.7-4.64-7.52-9.2-9.86-8.3-1.57-15.1 0.498-22.5 4.43-6.14 4.2-11.3 10.9-13.8 17.9-1.03 5.97 0.997 9.74 4.17 14.6 4.9 6.32 11.5 9.49 18.8 12.4-1.29 3.87-3.03 4.77-6.31 7.12-0.966 0.704-1.93 1.41-2.93 2.13-3.96 2.5-3.96 2.5-6.76 2.74-12.4-2.96-19.7-14.8-26-25-3.93-6.76-3.89-14.4-3-22 4.17-14 16-25.6 28.3-32.7 12.5-6.19 26.4-6.22 38.7 0.301z" fill="#000000" opacity="1.000000" stroke="none"/>
<path transform="translate(821,259)" d="m0 0c7.26 0.33 14.5 0.66 22 1 0.159 12.2-0.467 24.3-1.28 36.5-0.132 2.04-0.265 4.09-0.396 6.13-0.275 4.26-0.554 8.51-0.835 12.8-0.359 5.44-0.712 10.9-1.06 16.3-0.272 4.21-0.546 8.42-0.821 12.6-0.131 2.01-0.261 4.01-0.391 6.02-0.182 2.8-0.367 5.6-0.553 8.4-0.0788 1.23-0.0788 1.23-0.159 2.48-0.0519 0.772-0.104 1.54-0.157 2.34-0.0433 0.659-0.0866 1.32-0.131 2-0.314 3.47-0.784 6.93-1.22 10.4-7.26-0.33-14.5-0.66-22-1-0.185-11.8 0.535-23.5 1.28-35.3 0.132-2.14 0.265-4.28 0.396-6.43 0.276-4.46 0.554-8.93 0.835-13.4 0.359-5.71 0.712-11.4 1.06-17.1 0.271-4.41 0.546-8.82 0.821-13.2 0.131-2.11 0.262-4.22 0.391-6.32 0.181-2.94 0.366-5.88 0.553-8.82 0.0525-0.865 0.105-1.73 0.159-2.62 0.0519-0.806 0.104-1.61 0.157-2.44 0.0433-0.693 0.0866-1.39 0.131-2.1 0.269-2.76 0.762-5.49 1.22-8.22z" fill="#000000" opacity="1.000000" stroke="none"/>
<path transform="translate(1171 1e3)" d="m0 0c3.69 0.704 6.65 2.27 9.95 4.03 0.573 0.305 1.15 0.609 1.74 0.923 1.86 0.99 3.71 1.99 5.56 2.99 0.946 0.507 0.946 0.507 1.91 1.02 8.13 4.36 16.1 8.88 23.9 13.9 4.05 2.61 8.15 4.82 12.5 6.89 6.47 3.3 12.5 7.4 18.7 11.3 6.52 4.07 13.1 7.85 20 11.4 2.62 1.36 4.75 2.51 6.85 4.61-0.263 4.71-2.71 8.36-5.06 12.3-0.377 0.645-0.754 1.29-1.14 1.96-0.925 1.58-1.86 3.16-2.79 4.73-3.7-0.588-6.53-1.61-9.81-3.41-0.905-0.492-1.81-0.984-2.74-1.49-0.953-0.529-1.91-1.06-2.89-1.6-0.986-0.542-1.97-1.08-2.99-1.64-6.63-3.68-13-7.61-19.3-11.8-3.43-2.17-6.92-4.08-10.5-5.95-8.15-4.23-15.9-9.04-23.7-13.9-7.42-4.55-15-8.82-22.7-12.9-2.28-1.3-4.31-2.74-6.38-4.36 0.624-3.4 1.93-5.58 3.94-8.38 2.38-3.45 4.01-6.53 5.06-10.6z" fill="#000000" opacity="1.000000" stroke="none"/>
<path transform="translate(873,264)" d="m0 0c7.26 0.99 14.5 1.98 22 3-0.572 4.88-1.14 9.77-1.72 14.6-0.174 1.47-0.348 2.95-0.521 4.42-2.64 22.5-6.15 44.8-10 67.2-0.113 0.658-0.227 1.32-0.344 1.99-0.759 4.4-1.53 8.81-2.3 13.2-0.198 1.14-0.395 2.28-0.599 3.45-0.184 1.04-0.368 2.08-0.558 3.15-0.16 0.911-0.321 1.82-0.486 2.76-0.466 2.19-0.466 2.19-1.47 4.19-6.93-0.99-13.9-1.98-21-3-0.949-3.8-0.995-5.19-0.307-8.86 0.178-0.975 0.356-1.95 0.539-2.95 0.202-1.06 0.403-2.12 0.611-3.22 0.424-2.32 0.847-4.64 1.27-6.95 0.226-1.23 0.453-2.45 0.686-3.71 4.38-23.8 8.07-47.5 11.1-71.5 0.135-1.05 0.269-2.1 0.408-3.19 0.25-1.96 0.496-3.93 0.737-5.89 0.108-0.859 0.216-1.72 0.328-2.6 0.092-0.747 0.184-1.49 0.279-2.26 0.319-1.83 0.319-1.83 1.32-3.83z" fill="#000000" opacity="1.000000" stroke="none"/>
<path transform="translate(270,707)" d="m0 0c5.37 0.305 10.7 1.04 16.1 1.69 1.28 0.152 1.28 0.152 2.58 0.308 31.6 3.82 63 9.62 94.4 15 1.09 3.26 0.911 4.39 0.223 7.67-0.184 0.893-0.367 1.79-0.557 2.71-0.299 1.39-0.299 1.39-0.604 2.81-0.195 0.94-0.391 1.88-0.592 2.85-0.483 2.32-0.974 4.64-1.47 6.96-0.859-0.14-1.72-0.28-2.6-0.424-8.56-1.39-17.1-2.78-25.7-4.16-5-0.808-10-1.62-15-2.43-5.44-0.885-10.9-1.77-16.3-2.64-2.11-0.342-4.23-0.686-6.34-1.03-12.5-2.04-24.9-3.87-37.5-5.34-0.948-0.112-1.9-0.225-2.87-0.341-0.836-0.0962-1.67-0.192-2.53-0.291-2.16-0.328-2.16-0.328-5.16-1.33 1.24-19.2 1.24-19.2 4-22z" fill="#000000" opacity="1.000000" stroke="none"/>
<path transform="translate(961,1191)" d="m0 0c0.803 1.75 0.803 1.75 1.59 4.07 0.303 0.88 0.606 1.76 0.918 2.67 0.489 1.46 0.489 1.46 0.989 2.95 0.347 1.02 0.695 2.03 1.05 3.08 3.06 8.98 6.03 18 9.01 27 4.25 12.8 8.78 25.5 13.4 38.2-1.89 0.676-3.79 1.34-5.69 2-1.06 0.371-2.11 0.743-3.2 1.12-2.92 0.821-5.11 1.17-8.11 0.875-1.58-1.46-1.58-1.46-2.81-3.38-0.419-0.626-0.838-1.25-1.27-1.9-0.918-1.73-0.918-1.73-0.918-3.73-3.15 0.695-3.15 0.695-4.43 3.29-0.477 0.955-0.954 1.91-1.45 2.89-3.98 7.55-8.15 13.2-16.1 16.8-2.73 0.633-5.18 0.849-8 1-0.674-2.39-1.34-4.79-2-7.19-0.191-0.674-0.382-1.35-0.578-2.04-1-3.68-1.66-6.96-1.42-10.8 0.58-0.17 1.16-0.34 1.76-0.516 8.94-2.77 13.8-6.25 18.2-14.5 3.66-7.33-0.389-16.9-2.62-24.1-0.36-1.19-0.719-2.38-1.09-3.61-2.38-7.74-5.06-15.2-8.35-22.6-0.934-2.62-0.934-2.62 0.0664-5.62 1.83-0.999 1.83-0.999 4.18-1.86 0.845-0.311 1.69-0.621 2.56-0.941 0.889-0.313 1.78-0.626 2.69-0.949 0.885-0.329 1.77-0.657 2.68-0.996 6.61-2.39 6.61-2.39 8.88-1.25z" fill="#000000" opacity="1.000000" stroke="none"/>
<path transform="translate(495,392)" d="m0 0c1.43 1.72 1.43 1.72 2.88 4.06 1.92 3.04 3.86 5.99 6 8.88 2.12 3.06 2.12 3.06 2.12 5.06-1.38 0.952-2.81 1.84-4.25 2.69-5.32 3.47-7.92 6.5-9.27 12.7-0.735 5.39-0.406 9.41 1.52 14.6 2.23 2.93 2.23 2.93 5 5.62 4.02 4.16 7.68 8.41 11.1 13.1 3.68 4.94 7.65 9.31 12.2 13.5 1.71 1.8 1.71 1.8 2.71 4.8-2.43 2.18-4.87 4.34-7.31 6.5-1.04 0.93-1.04 0.93-2.09 1.88-0.667 0.587-1.33 1.17-2.02 1.78-0.919 0.817-0.919 0.817-1.86 1.65-1.72 1.19-1.72 1.19-4.72 1.19-5.22-4.57-9.32-9.91-13.5-15.4-3.44-4.43-7.11-8.55-11-12.6-4.82-5.07-9.21-10.3-13.5-15.9-4.66-6.04-9.8-11.6-15-17.1 1.31-3.93 3.33-5.13 6.56-7.69 1.01-0.808 2.02-1.62 3.07-2.45 0.782-0.615 1.56-1.23 2.37-1.86 4 2.67 8 5.33 12 8 0.0213-1.34 0.0213-1.34 0.043-2.71 0.488-12.4 3.94-19.5 12.1-28.7 1.87-1.62 1.87-1.62 4.87-1.62z" fill="#000000" opacity="1.000000" stroke="none"/>
<path transform="translate(596,407)" d="m0 0c3.2 1.63 5.21 4.01 7.44 6.81 0.907 3.53 0.621 6.75-0.438 10.2-2.85 3.65-5.5 5.85-10 7-3.87 0.441-7.05 0.323-10.8-0.938-3.4-3.11-5.07-6.63-6.25-11.1 0.483-4.19 1.91-6.14 5-8.81 4.97-3.62 8.93-4.03 15-3.19z" fill="#000000" opacity="1.000000" stroke="none"/>
<path transform="translate(864,1216)" d="m0 0c3.83 3.26 5.21 5.61 5.94 10.6 0.279 5.04-0.55 7.88-3.94 11.7-4.23 2.47-8.14 2.94-13 2.75-3.61-1.31-4.67-2.52-6.81-5.69-1.95-5.45-2.11-9.35 0.375-14.6 4.75-5.24 10.8-7.17 17.4-4.69z" fill="#000000" opacity="1.000000" stroke="none"/>
</svg>
